<svg width="1584" height="396" viewBox="0 0 1584 396" fill="none" xmlns="http://www.w3.org/2000/svg">
<rect width="1584" height="396" fill="#0D0A1A"/>
<mask id="path-1-inside-1_459_1365" fill="white">
<path fill-rule="evenodd" clip-rule="evenodd" d="M436.783 165.73C443.708 166.01 449.861 165.706 455.287 165.029C453.125 183.496 447.932 201.752 439.61 219.021C437.815 218.02 436.074 216.869 434.404 215.564C431.962 213.657 429.801 211.523 427.927 209.217C430.244 213.715 432.016 218.444 433.228 223.298C427.733 230.144 421.131 235.595 413.879 239.594C393.348 232.225 379.05 214.975 379.05 190.037C379.05 175.843 383.682 162.775 391.46 152.381C398.163 157.262 412.292 164.74 436.783 165.73ZM441.195 243.574C472 242.889 493.042 231.86 508.045 190.037C491.396 190.037 487.369 177.976 482.887 164.549C482.126 162.268 481.351 159.948 480.5 157.641C476.356 159.796 470.52 162.149 462.795 163.778C460.57 183.637 454.842 203.268 445.492 221.702C450.347 223.455 455.44 224.228 460.485 224.055C453.132 227.428 446.32 232.212 440.483 238.354C440.763 240.088 441.001 241.828 441.195 243.574ZM417.032 187.46C417.032 183.822 419.981 180.872 423.62 180.872C427.259 180.872 430.209 183.822 430.209 187.46V194.526C430.209 198.165 427.259 201.115 423.62 201.115C419.981 201.115 417.032 198.165 417.032 194.526V187.46ZM397.246 180.872C393.923 180.872 391.23 183.565 391.23 186.887V195.099C391.23 198.421 393.923 201.115 397.246 201.115C400.568 201.115 403.261 198.421 403.261 195.099V186.887C403.261 183.565 400.568 180.872 397.246 180.872Z"/>
</mask>
<path fill-rule="evenodd" clip-rule="evenodd" d="M436.783 165.73C443.708 166.01 449.861 165.706 455.287 165.029C453.125 183.496 447.932 201.752 439.61 219.021C437.815 218.02 436.074 216.869 434.404 215.564C431.962 213.657 429.801 211.523 427.927 209.217C430.244 213.715 432.016 218.444 433.228 223.298C427.733 230.144 421.131 235.595 413.879 239.594C393.348 232.225 379.05 214.975 379.05 190.037C379.05 175.843 383.682 162.775 391.46 152.381C398.163 157.262 412.292 164.74 436.783 165.73ZM441.195 243.574C472 242.889 493.042 231.86 508.045 190.037C491.396 190.037 487.369 177.976 482.887 164.549C482.126 162.268 481.351 159.948 480.5 157.641C476.356 159.796 470.52 162.149 462.795 163.778C460.57 183.637 454.842 203.268 445.492 221.702C450.347 223.455 455.44 224.228 460.485 224.055C453.132 227.428 446.32 232.212 440.483 238.354C440.763 240.088 441.001 241.828 441.195 243.574ZM417.032 187.46C417.032 183.822 419.981 180.872 423.62 180.872C427.259 180.872 430.209 183.822 430.209 187.46V194.526C430.209 198.165 427.259 201.115 423.62 201.115C419.981 201.115 417.032 198.165 417.032 194.526V187.46ZM397.246 180.872C393.923 180.872 391.23 183.565 391.23 186.887V195.099C391.23 198.421 393.923 201.115 397.246 201.115C400.568 201.115 403.261 198.421 403.261 195.099V186.887C403.261 183.565 400.568 180.872 397.246 180.872Z" fill="white"/>
<path d="M455.287 165.029L457.628 165.303L457.978 162.317L454.995 162.69L455.287 165.029ZM436.783 165.73L436.687 168.085L436.687 168.085L436.783 165.73ZM439.61 219.021L438.462 221.08L440.647 222.299L441.734 220.044L439.61 219.021ZM434.404 215.564L432.953 217.422L432.953 217.422L434.404 215.564ZM427.927 209.217L429.757 207.73L425.832 210.297L427.927 209.217ZM433.228 223.298L435.067 224.774L435.799 223.862L435.515 222.727L433.228 223.298ZM413.879 239.594L413.083 241.813L414.085 242.173L415.018 241.659L413.879 239.594ZM379.05 190.037L376.692 190.037L379.05 190.037ZM391.46 152.381L392.847 150.476L390.966 149.106L389.572 150.969L391.46 152.381ZM441.195 243.574L438.852 243.834L439.091 245.978L441.247 245.93L441.195 243.574ZM508.045 190.037L510.263 190.833L511.395 187.68H508.045V190.037ZM482.887 164.549L480.651 165.296L480.651 165.296L482.887 164.549ZM480.5 157.641L482.711 156.825L481.785 154.316L479.412 155.55L480.5 157.641ZM462.795 163.778L462.308 161.472L460.642 161.823L460.452 163.516L462.795 163.778ZM445.492 221.702L443.39 220.636L442.184 223.014L444.692 223.919L445.492 221.702ZM460.485 224.055L461.468 226.197L460.404 221.699L460.485 224.055ZM440.483 238.354L438.774 236.73L437.969 237.577L438.156 238.73L440.483 238.354ZM454.995 162.69C449.701 163.351 443.678 163.649 436.878 163.375L436.687 168.085C443.739 168.37 450.021 168.062 455.579 167.368L454.995 162.69ZM441.734 220.044C450.171 202.535 455.437 184.025 457.628 165.303L452.945 164.755C450.814 182.966 445.692 200.969 437.486 217.998L441.734 220.044ZM440.758 216.962C439.069 216.02 437.429 214.936 435.855 213.706L432.953 217.422C434.719 218.801 436.561 220.02 438.462 221.08L440.758 216.962ZM435.855 213.706C433.554 211.909 431.52 209.9 429.757 207.73L426.098 210.704C428.083 213.147 430.371 215.405 432.953 217.422L435.855 213.706ZM425.832 210.297C428.065 214.631 429.772 219.189 430.941 223.869L435.515 222.727C434.259 217.698 432.424 212.798 430.023 208.137L425.832 210.297ZM431.39 221.823C426.091 228.424 419.728 233.677 412.741 237.53L415.018 241.659C422.534 237.513 429.376 231.864 435.067 224.774L431.39 221.823ZM376.692 190.037C376.692 216.049 391.693 234.136 413.083 241.813L414.675 237.376C395.004 230.315 381.407 213.9 381.407 190.037L376.692 190.037ZM389.572 150.969C381.496 161.763 376.692 175.325 376.692 190.037L381.407 190.037C381.407 176.362 385.869 163.788 393.347 153.794L389.572 150.969ZM436.878 163.375C412.86 162.404 399.179 155.086 392.847 150.476L390.072 154.287C397.146 159.438 411.724 167.076 436.687 168.085L436.878 163.375ZM441.247 245.93C456.911 245.582 470.417 242.598 481.941 234.132C493.445 225.682 502.674 211.99 510.263 190.833L505.826 189.241C498.412 209.908 489.619 222.642 479.15 230.333C468.701 238.008 456.284 240.88 441.143 241.217L441.247 245.93ZM508.045 187.68C500.424 187.68 495.951 184.982 492.765 180.882C489.413 176.569 487.401 170.624 485.123 163.803L480.651 165.296C482.856 171.901 485.098 178.7 489.042 183.775C493.152 189.062 499.017 192.395 508.045 192.395V187.68ZM485.123 163.803C484.364 161.528 483.578 159.172 482.711 156.825L478.288 158.458C479.125 160.724 479.888 163.009 480.651 165.296L485.123 163.803ZM479.412 155.55C475.451 157.61 469.817 159.888 462.308 161.472L463.281 166.085C471.224 164.41 477.261 161.983 481.587 159.733L479.412 155.55ZM460.452 163.516C458.258 183.101 452.609 202.458 443.39 220.636L447.595 222.768C457.074 204.077 462.882 184.174 465.137 164.041L460.452 163.516ZM460.404 221.699C455.654 221.862 450.86 221.134 446.293 219.485L444.692 223.919C449.834 225.776 455.226 226.594 460.565 226.411L460.404 221.699ZM442.192 239.978C447.818 234.058 454.382 229.448 461.468 226.197L459.502 221.912C451.882 225.408 444.822 230.366 438.774 236.73L442.192 239.978ZM443.538 243.313C443.339 241.529 443.097 239.75 442.81 237.978L438.156 238.73C438.43 240.426 438.662 242.128 438.852 243.834L443.538 243.313ZM423.62 178.515C418.679 178.515 414.674 182.52 414.674 187.46H419.389C419.389 185.124 421.283 183.229 423.62 183.229V178.515ZM432.566 187.46C432.566 182.52 428.561 178.515 423.62 178.515V183.229C425.957 183.229 427.851 185.124 427.851 187.46H432.566ZM432.566 194.526V187.46H427.851V194.526H432.566ZM423.62 203.472C428.561 203.472 432.566 199.467 432.566 194.526H427.851C427.851 196.863 425.957 198.757 423.62 198.757V203.472ZM414.674 194.526C414.674 199.467 418.679 203.472 423.62 203.472V198.757C421.283 198.757 419.389 196.863 419.389 194.526H414.674ZM414.674 187.46V194.526H419.389V187.46H414.674ZM393.587 186.887C393.587 184.867 395.225 183.229 397.246 183.229V178.515C392.621 178.515 388.873 182.263 388.873 186.887H393.587ZM393.587 195.099V186.887H388.873V195.099H393.587ZM397.246 198.757C395.225 198.757 393.587 197.119 393.587 195.099H388.873C388.873 199.723 392.621 203.472 397.246 203.472V198.757ZM400.904 195.099C400.904 197.119 399.266 198.757 397.246 198.757V203.472C401.87 203.472 405.619 199.723 405.619 195.099H400.904ZM400.904 186.887V195.099H405.619V186.887H400.904ZM397.246 183.229C399.266 183.229 400.904 184.867 400.904 186.887H405.619C405.619 182.263 401.87 178.515 397.246 178.515V183.229Z" fill="white" mask="url(#path-1-inside-1_459_1365)"/>
<path fill-rule="evenodd" clip-rule="evenodd" d="M424.351 287.682C425.778 284.527 426.998 281.233 427.99 277.81C430.435 269.372 431.292 260.85 430.738 252.564C430.366 257.55 429.475 262.573 428.028 267.567C426.006 274.545 423.036 280.99 419.298 286.803C420.974 287.163 422.66 287.456 424.351 287.682Z" fill="white"/>
<path d="M462.379 187.369C459.2 187.369 456.15 188.632 453.902 190.88C451.653 193.129 450.39 196.178 450.39 199.358C450.39 202.537 451.653 205.587 453.902 207.835C456.15 210.084 459.2 211.347 462.379 211.347L462.379 199.358V187.369Z" fill="white"/>
<mask id="path-5-outside-2_459_1365" maskUnits="userSpaceOnUse" x="398.581" y="117.499" width="103.746" height="109.61" fill="black">
<rect fill="white" x="398.581" y="117.499" width="103.746" height="109.61"/>
<path fill-rule="evenodd" clip-rule="evenodd" d="M462.926 126.848C466.275 158.864 460.632 191.851 445.492 221.703C443.484 220.978 441.516 220.085 439.61 219.021C454.069 189.016 459.085 156.027 455.159 124.139C457.676 125.32 460.279 126.222 462.926 126.848Z"/>
</mask>
<path d="M445.492 221.703L447.086 222.511L446.371 223.92L444.885 223.384L445.492 221.703ZM462.926 126.848L463.337 125.108L464.571 125.4L464.703 126.662L462.926 126.848ZM439.61 219.021L438.739 220.582L437.269 219.762L438 218.246L439.61 219.021ZM455.159 124.139L453.385 124.357L452.99 121.147L455.918 122.521L455.159 124.139ZM443.898 220.894C458.878 191.359 464.463 158.718 461.149 127.033L464.703 126.662C468.087 159.01 462.386 192.344 447.086 222.511L443.898 220.894ZM440.48 217.461C442.302 218.476 444.181 219.329 446.099 220.022L444.885 223.384C442.787 222.626 440.731 221.693 438.739 220.582L440.48 217.461ZM456.932 123.921C460.899 156.14 455.832 189.474 441.22 219.797L438 218.246C452.307 188.558 457.271 155.915 453.385 124.357L456.932 123.921ZM462.515 128.587C459.749 127.933 457.029 126.991 454.399 125.757L455.918 122.521C458.322 123.65 460.809 124.51 463.337 125.108L462.515 128.587Z" fill="white" mask="url(#path-5-outside-2_459_1365)"/>
<path fill-rule="evenodd" clip-rule="evenodd" d="M487.021 125.027L484.959 124.18L484.34 126.321L486.261 126.877C484.34 126.321 484.34 126.322 484.339 126.322L484.339 126.324L484.338 126.328L484.335 126.339L484.324 126.377C484.315 126.408 484.303 126.453 484.287 126.511C484.256 126.626 484.211 126.792 484.158 127.004C484.05 127.427 483.904 128.035 483.746 128.79C483.428 130.297 483.056 132.405 482.837 134.81C482.406 139.54 482.532 145.762 485.166 150.783C485.382 151.194 485.448 151.607 485.41 151.915C485.377 152.194 485.269 152.361 485.11 152.477C481.94 154.797 474.846 159.093 463.016 161.685C462.947 162.383 462.873 163.081 462.795 163.778C475.294 161.143 482.845 156.612 486.291 154.091C487.614 153.123 487.699 151.306 486.937 149.854C483.294 142.909 484.871 132.998 485.781 128.836C486.05 127.605 486.261 126.877 486.261 126.877C486.635 127.031 487.01 127.138 487.387 127.203C494.46 128.418 501.94 114.569 505.032 108.072C505.85 106.353 504.945 104.393 503.092 103.952C484.949 99.6362 400.057 83.0371 386.903 146.639C386.711 147.565 386.961 148.562 387.642 149.218C391.404 152.845 405.805 164.478 436.783 165.73C443.708 166.01 449.861 165.706 455.287 165.029C455.366 164.348 455.442 163.666 455.514 162.984C450.082 163.69 443.882 164.015 436.863 163.732C406.412 162.501 392.467 151.092 389.03 147.778C388.908 147.661 388.79 147.391 388.862 147.044C392.051 131.625 399.547 121.173 409.23 114.149C418.961 107.091 431.015 103.414 443.384 101.81C468.15 98.5966 493.622 103.755 502.629 105.898C502.953 105.975 503.151 106.164 503.252 106.381C503.355 106.6 503.378 106.894 503.226 107.213C501.615 110.598 498.847 115.892 495.631 119.934C494.016 121.964 492.386 123.551 490.841 124.457C489.334 125.341 488.11 125.475 487.021 125.027Z" fill="white"/>
<mask id="path-8-inside-3_459_1365" fill="white">
<path fill-rule="evenodd" clip-rule="evenodd" d="M440.483 238.354C446.32 232.212 453.131 227.428 460.484 224.055C451.389 224.367 442.137 221.605 434.404 215.564C431.962 213.657 429.801 211.524 427.927 209.217C430.244 213.715 432.016 218.444 433.228 223.298C418.124 242.116 394.654 250.392 372.321 246.959C376.451 257.435 383.347 266.98 392.863 274.414C405.823 284.538 421.407 288.998 436.633 288.16C441.929 271.955 443.151 254.854 440.483 238.354Z"/>
</mask>
<path d="M460.484 224.055L460.382 221.078L461.726 226.762L460.484 224.055ZM440.483 238.354L437.543 238.829L437.307 237.372L438.324 236.302L440.483 238.354ZM427.927 209.217L425.28 210.581L430.239 207.339L427.927 209.217ZM433.228 223.298L436.118 222.577L436.476 224.01L435.551 225.163L433.228 223.298ZM372.321 246.959L369.55 248.051L367.648 243.227L372.774 244.015L372.321 246.959ZM436.633 288.16L439.464 289.085L438.831 291.022L436.797 291.134L436.633 288.16ZM461.726 226.762C454.711 229.981 448.212 234.545 442.642 240.406L438.324 236.302C444.427 229.88 451.552 224.876 459.242 221.348L461.726 226.762ZM436.237 213.217C443.399 218.811 451.96 221.367 460.382 221.078L460.586 227.032C450.818 227.366 440.875 224.398 432.57 217.911L436.237 213.217ZM430.239 207.339C431.973 209.473 433.973 211.449 436.237 213.217L432.57 217.911C429.951 215.865 427.63 213.574 425.616 211.095L430.239 207.339ZM430.339 224.02C429.181 219.386 427.49 214.873 425.28 210.581L430.575 207.853C432.998 212.557 434.85 217.502 436.118 222.577L430.339 224.02ZM372.774 244.015C394.097 247.293 416.494 239.39 430.905 221.434L435.551 225.163C419.755 244.842 395.212 253.491 371.869 249.903L372.774 244.015ZM391.029 276.761C381.083 268.991 373.87 259.008 369.55 248.051L375.092 245.867C379.032 255.862 385.61 264.969 394.696 272.067L391.029 276.761ZM436.797 291.134C420.879 292.01 404.579 287.346 391.029 276.761L394.696 272.067C407.068 281.731 421.936 285.986 436.469 285.186L436.797 291.134ZM443.423 237.878C446.165 254.839 444.91 272.421 439.464 289.085L433.802 287.235C438.948 271.49 440.136 254.869 437.543 238.829L443.423 237.878Z" fill="white" mask="url(#path-8-inside-3_459_1365)"/>
<path d="M634.505 167.81C634.104 163.763 632.381 160.62 629.338 158.379C626.295 156.138 622.165 155.018 616.948 155.018C613.403 155.018 610.41 155.52 607.969 156.523C605.528 157.493 603.655 158.847 602.351 160.586C601.08 162.325 600.445 164.298 600.445 166.505C600.378 168.345 600.762 169.95 601.598 171.321C602.468 172.692 603.655 173.879 605.16 174.882C606.665 175.852 608.404 176.705 610.377 177.441C612.35 178.143 614.457 178.745 616.697 179.247L625.927 181.454C630.408 182.457 634.522 183.795 638.267 185.467C642.013 187.139 645.257 189.196 647.999 191.637C650.741 194.078 652.865 196.954 654.37 200.265C655.908 203.576 656.694 207.371 656.727 211.652C656.694 217.939 655.089 223.39 651.912 228.005C648.768 232.586 644.22 236.148 638.267 238.69C632.348 241.198 625.208 242.452 616.848 242.452C608.554 242.452 601.331 241.181 595.177 238.639C589.058 236.098 584.275 232.336 580.831 227.353C577.42 222.336 575.631 216.133 575.463 208.742H596.482C596.716 212.187 597.702 215.063 599.441 217.37C601.214 219.644 603.571 221.367 606.514 222.537C609.491 223.674 612.851 224.243 616.597 224.243C620.276 224.243 623.469 223.708 626.178 222.637C628.92 221.567 631.044 220.079 632.549 218.173C634.054 216.267 634.806 214.076 634.806 211.602C634.806 209.294 634.12 207.355 632.749 205.783C631.412 204.211 629.439 202.873 626.83 201.77C624.255 200.666 621.095 199.663 617.349 198.76L606.163 195.951C597.502 193.844 590.663 190.55 585.646 186.069C580.63 181.588 578.139 175.551 578.172 167.96C578.139 161.74 579.794 156.306 583.138 151.657C586.516 147.009 591.148 143.38 597.033 140.772C602.919 138.163 609.608 136.859 617.099 136.859C624.723 136.859 631.378 138.163 637.063 140.772C642.782 143.38 647.23 147.009 650.407 151.657C653.584 156.306 655.222 161.69 655.323 167.81H634.505ZM686.135 240.997L665.167 163.947H686.787L698.726 215.715H699.428L711.869 163.947H733.087L745.728 215.414H746.381L758.119 163.947H779.689L758.771 240.997H736.147L722.904 192.54H721.951L708.708 240.997H686.135ZM824.271 242.502C816.345 242.502 809.523 240.897 803.804 237.686C798.119 234.442 793.738 229.861 790.662 223.942C787.585 217.989 786.047 210.95 786.047 202.823C786.047 194.897 787.585 187.942 790.662 181.955C793.738 175.969 798.069 171.304 803.654 167.96C809.272 164.616 815.86 162.944 823.418 162.944C828.501 162.944 833.233 163.763 837.614 165.402C842.028 167.007 845.874 169.431 849.152 172.675C852.462 175.919 855.037 179.999 856.877 184.915C858.716 189.798 859.636 195.516 859.636 202.071V207.94H794.574V194.697H839.52C839.52 191.62 838.852 188.895 837.514 186.52C836.176 184.146 834.32 182.29 831.946 180.952C829.605 179.581 826.879 178.896 823.769 178.896C820.525 178.896 817.649 179.648 815.141 181.153C812.667 182.624 810.727 184.614 809.322 187.122C807.918 189.597 807.199 192.356 807.165 195.399V207.99C807.165 211.802 807.868 215.096 809.272 217.872C810.71 220.648 812.733 222.788 815.342 224.293C817.95 225.798 821.044 226.55 824.622 226.55C826.996 226.55 829.17 226.216 831.143 225.547C833.116 224.878 834.805 223.875 836.21 222.537C837.614 221.199 838.684 219.561 839.42 217.621L859.184 218.925C858.181 223.674 856.124 227.821 853.014 231.366C849.937 234.877 845.958 237.619 841.075 239.592C836.226 241.532 830.625 242.502 824.271 242.502ZM908.695 242.502C900.769 242.502 893.947 240.897 888.228 237.686C882.543 234.442 878.162 229.861 875.086 223.942C872.009 217.989 870.471 210.95 870.471 202.823C870.471 194.897 872.009 187.942 875.086 181.955C878.162 175.969 882.493 171.304 888.078 167.96C893.696 164.616 900.284 162.944 907.842 162.944C912.925 162.944 917.657 163.763 922.038 165.402C926.452 167.007 930.298 169.431 933.576 172.675C936.886 175.919 939.461 179.999 941.301 184.915C943.14 189.798 944.06 195.516 944.06 202.071V207.94H878.998V194.697H923.944C923.944 191.62 923.276 188.895 921.938 186.52C920.6 184.146 918.744 182.29 916.37 180.952C914.029 179.581 911.303 178.896 908.193 178.896C904.949 178.896 902.073 179.648 899.565 181.153C897.091 182.624 895.151 184.614 893.746 187.122C892.342 189.597 891.623 192.356 891.589 195.399V207.99C891.589 211.802 892.292 215.096 893.696 217.872C895.134 220.648 897.157 222.788 899.766 224.293C902.374 225.798 905.468 226.55 909.046 226.55C911.42 226.55 913.594 226.216 915.567 225.547C917.54 224.878 919.229 223.875 920.634 222.537C922.038 221.199 923.108 219.561 923.844 217.621L943.608 218.925C942.605 223.674 940.548 227.821 937.438 231.366C934.361 234.877 930.382 237.619 925.499 239.592C920.65 241.532 915.049 242.502 908.695 242.502ZM958.005 269.891V163.947H979.073V176.889H980.026C980.963 174.816 982.317 172.709 984.089 170.568C985.895 168.395 988.236 166.589 991.112 165.151C994.022 163.679 997.633 162.944 1001.95 162.944C1007.57 162.944 1012.75 164.415 1017.5 167.358C1022.25 170.268 1026.04 174.665 1028.88 180.551C1031.73 186.403 1033.15 193.744 1033.15 202.572C1033.15 211.167 1031.76 218.424 1028.99 224.343C1026.24 230.229 1022.5 234.693 1017.75 237.736C1013.03 240.746 1007.75 242.251 1001.9 242.251C997.75 242.251 994.222 241.566 991.313 240.194C988.437 238.823 986.079 237.101 984.24 235.028C982.401 232.921 980.996 230.797 980.026 228.657H979.374V269.891H958.005ZM978.923 202.472C978.923 207.054 979.558 211.05 980.829 214.461C982.1 217.872 983.939 220.531 986.347 222.437C988.755 224.31 991.681 225.246 995.125 225.246C998.603 225.246 1001.55 224.293 1003.95 222.387C1006.36 220.447 1008.18 217.772 1009.42 214.361C1010.69 210.916 1011.33 206.953 1011.33 202.472C1011.33 198.024 1010.71 194.112 1009.47 190.734C1008.23 187.356 1006.41 184.714 1004 182.808C1001.6 180.902 998.637 179.949 995.125 179.949C991.647 179.949 988.704 180.869 986.297 182.708C983.922 184.547 982.1 187.156 980.829 190.533C979.558 193.911 978.923 197.89 978.923 202.472ZM1098.2 240.997H1074.92L1110.39 138.264H1138.38L1173.79 240.997H1150.52L1124.78 161.74H1123.98L1098.2 240.997ZM1096.74 200.616H1151.72V217.571H1096.74V200.616ZM1207.88 138.264V240.997H1186.16V138.264H1207.88Z" fill="white"/>
</svg>
